<svg width="185.95196533203125px" height="121.60000610351562px" xmlns="http://www.w3.org/2000/svg" viewBox="157.02401733398438 14.199996948242188 185.95196533203125 121.60000610351562" style="background:#f2eddb" preserveAspectRatio="xMidYMid"><defs><filter id="editing-vintage" x="-100%" y="-100%" width="300%" height="300%"><feConvolveMatrix in="SourceGraphic" result="extrude" order="9,9" divisor="1" kernelMatrix="1,0,0,0,0,0,0,0,0,0,1,0,0,0,0,0,0,0,0,0,1,0,0,0,0,0,0,0,0,0,1,0,0,0,0,0,0,0,0,0,1,0,0,0,0,0,0,0,0,0,1,0,0,0,0,0,0,0,0,0,1,0,0,0,0,0,0,0,0,0,1,0,0,0,0,0,0,0,0,0,1"> </feConvolveMatrix><feFlood flood-color="#900" result="flood-extrude"></feFlood><feComposite operator="in" in="flood-extrude" in2="extrude" result="extrude-color"></feComposite><feOffset dx="5" dy="5" in="extrude-color" result="extrude-offset"></feOffset><feColorMatrix in="SourceGraphic" result="stroke" type="matrix" values="0 0 0 0 0 0 0 0 0 0 0 0 0 0 0 0 1 0 0 0 "></feColorMatrix><feColorMatrix in="SourceGraphic" result="fill" type="matrix" values="0 0 0 0 0 0 0 0 0 0 0 0 0 0 0 1 0 0 1 0 "></feColorMatrix><feConvolveMatrix in="stroke" result="inner-shadow" order="5,5" divisor="1" kernelMatrix="1 0 0 0 0 0 1 0 0 0 0 0 1 0 0 0 0 0 1 0 0 0 0 0 1 "></feConvolveMatrix><feOffset dx="1" dy="1" in="inner-shadow" result="offset"></feOffset><feComposite operator="in" in="offset" in2="SourceAlpha" result="comp"></feComposite><feFlood flood-color="#000" result="flood3"></feFlood><feComposite operator="in" in="flood3" in2="comp" result="comp2"></feComposite><feColorMatrix in="comp2" result="comp3" type="matrix" values="1 0 0 0 0 0 1 0 0 0 0 0 1 0 0 0 0 0 0.5 0 "></feColorMatrix><feFlood flood-color="#f00" result="flood1"></feFlood><feComposite operator="in" in="flood1" in2="fill" result="fill2"></feComposite><feFlood flood-color="#fff" result="flood2"></feFlood><feComposite operator="in" in="flood2" in2="stroke" result="stroke2"></feComposite><feMerge result="obj"><feMergeNode in="extrude-offset"></feMergeNode><feMergeNode in="fill2"></feMergeNode><feMergeNode in="comp3"></feMergeNode></feMerge><feConvolveMatrix in="SourceAlpha" result="shadow" order="9,9" divisor="1" kernelMatrix="1,0,0,0,0,0,0,0,0,0,1,0,0,0,0,0,0,0,0,0,1,0,0,0,0,0,0,0,0,0,1,0,0,0,0,0,0,0,0,0,1,0,0,0,0,0,0,0,0,0,1,0,0,0,0,0,0,0,0,0,1,0,0,0,0,0,0,0,0,0,1,0,0,0,0,0,0,0,0,0,1"></feConvolveMatrix><feOffset dx="15" dy="15" in="shadow" result="shadow-offset"></feOffset><feFlood flood-color="#444" result="flood-shadow"></feFlood><feComposite operator="in" in="flood-shadow" in2="shadow-offset" result="shadow-color"></feComposite><feMerge><feMergeNode in="shadow-color"></feMergeNode><feMergeNode in="obj"></feMergeNode></feMerge></filter></defs><g transform="translate(-9,-9)"><g filter="url(#editing-vintage)"><g transform="translate(189.52597534656525, 97.42999649047852)"><path d="M26.05-29.57L26.05-29.57L26.05-29.57Q27.01-31.49 27.01-33.28L27.01-33.28L27.01-33.28Q27.01-35.07 26.82-36.06L26.82-36.06L26.82-36.06Q26.62-37.06 26.18-37.82L26.18-37.82L26.18-37.82Q25.22-39.49 23.30-39.49L23.30-39.49L23.30-39.49Q20.93-39.49 19.01-37.76L19.01-37.76L19.01-37.76Q16.96-35.97 16.96-33.15L16.96-33.15L16.96-33.15Q16.96-31.36 18.21-29.98L18.21-29.98L18.21-29.98Q19.46-28.61 21.38-27.33L21.38-27.33L21.38-27.33Q23.30-26.05 25.47-24.77L25.47-24.77L25.47-24.77Q27.65-23.49 29.57-21.95L29.57-21.95L29.57-21.95Q33.98-18.43 33.98-13.70L33.98-13.70L33.98-13.70Q33.98-10.50 32.29-7.78L32.29-7.78L32.29-7.78Q30.59-5.06 27.78-3.07L27.78-3.07L27.78-3.07Q21.63 1.28 13.50 1.28L13.50 1.28L13.50 1.28Q6.91 1.28 3.52-0.86L3.52-0.86L3.52-0.86Q0.13-3.01 0.13-6.27L0.13-6.27L0.13-6.27Q0.13-12.10 4.67-13.57L4.67-13.57L4.67-13.57Q5.95-14.02 7.90-14.02L7.90-14.02L7.90-14.02Q9.86-14.02 12.10-13.18L12.10-13.18L12.10-13.18Q11.07-10.56 11.07-8.19L11.07-8.19L11.07-8.19Q11.07-3.07 14.72-3.07L14.72-3.07L14.72-3.07Q17.09-3.07 19.04-4.80L19.04-4.80L19.04-4.80Q20.99-6.53 20.99-8.48L20.99-8.48L20.99-8.48Q20.99-10.43 19.74-11.84L19.74-11.84L19.74-11.84Q18.50-13.25 16.64-14.37L16.64-14.37L16.64-14.37Q14.78-15.49 12.64-16.58L12.64-16.58L12.64-16.58Q10.50-17.66 8.64-19.20L8.64-19.20L8.64-19.20Q4.29-22.72 4.29-28.35L4.29-28.35L4.29-28.35Q4.29-32 6.08-34.85L6.08-34.85L6.08-34.85Q7.87-37.70 10.75-39.62L10.75-39.62L10.75-39.62Q16.51-43.52 23.58-43.52L23.58-43.52L23.58-43.52Q30.66-43.52 34.08-41.41L34.08-41.41L34.08-41.41Q37.50-39.30 37.50-35.71L37.50-35.71L37.50-35.71Q37.50-32.58 35.07-30.59L35.07-30.59L35.07-30.59Q32.96-28.93 30.40-28.93L30.40-28.93L30.40-28.93Q27.84-28.93 26.05-29.57ZM39.81-15.62L39.81-15.62L39.81-15.62Q39.81-27.71 46.08-35.33L46.08-35.33L46.08-35.33Q52.74-43.58 64.32-43.58L64.32-43.58L64.32-43.58Q72.70-43.58 76.93-39.52L76.93-39.52L76.93-39.52Q81.15-35.46 81.15-26.88L81.15-26.88L81.15-26.88Q81.15-13.82 74.50-6.21L74.50-6.21L74.50-6.21Q67.90 1.28 56.83 1.28L56.83 1.28L56.83 1.28Q48.19 1.28 44-3.04L44-3.04L44-3.04Q39.81-7.36 39.81-15.62ZM56.64-28.86L56.64-28.86L56.64-28.86Q53.76-17.34 53.76-8.26L53.76-8.26L53.76-8.26Q53.76-6.08 54.50-4.67L54.50-4.67L54.50-4.67Q55.23-3.26 57.18-3.26L57.18-3.26L57.18-3.26Q59.14-3.26 60.35-4.19L60.35-4.19L60.35-4.19Q61.57-5.12 62.53-7.23L62.53-7.23L62.53-7.23Q64.06-10.69 65.50-18.02L65.50-18.02L65.50-18.02Q66.94-25.34 67.07-28.38L67.07-28.38L67.07-28.38Q67.20-31.42 67.20-33.73L67.20-33.73L67.20-33.73Q67.20-36.03 66.50-37.50L66.50-37.50L66.50-37.50Q65.79-38.98 63.90-38.98L63.90-38.98L63.90-38.98Q62.02-38.98 60.74-37.82L60.74-37.82L60.74-37.82Q58.37-35.65 56.64-28.86ZM109.25-29.57L109.25-29.57L109.25-29.57Q110.21-31.49 110.21-33.28L110.21-33.28L110.21-33.28Q110.21-35.07 110.02-36.06L110.02-36.06L110.02-36.06Q109.82-37.06 109.38-37.82L109.38-37.82L109.38-37.82Q108.42-39.49 106.50-39.49L106.50-39.49L106.50-39.49Q104.13-39.49 102.21-37.76L102.21-37.76L102.21-37.76Q100.16-35.97 100.16-33.15L100.16-33.15L100.16-33.15Q100.16-31.36 101.41-29.98L101.41-29.98L101.41-29.98Q102.66-28.61 104.58-27.33L104.58-27.33L104.58-27.33Q106.50-26.05 108.67-24.77L108.67-24.77L108.67-24.77Q110.85-23.49 112.77-21.95L112.77-21.95L112.77-21.95Q117.18-18.43 117.18-13.70L117.18-13.70L117.18-13.70Q117.18-10.50 115.49-7.78L115.49-7.78L115.49-7.78Q113.79-5.06 110.98-3.07L110.98-3.07L110.98-3.07Q104.83 1.28 96.70 1.28L96.70 1.28L96.70 1.28Q90.11 1.28 86.72-0.86L86.72-0.86L86.72-0.86Q83.33-3.01 83.33-6.27L83.33-6.27L83.33-6.27Q83.33-12.10 87.87-13.57L87.87-13.57L87.87-13.57Q89.15-14.02 91.10-14.02L91.10-14.02L91.10-14.02Q93.06-14.02 95.30-13.18L95.30-13.18L95.30-13.18Q94.27-10.56 94.27-8.19L94.27-8.19L94.27-8.19Q94.27-3.07 97.92-3.07L97.92-3.07L97.92-3.07Q100.29-3.07 102.24-4.80L102.24-4.80L102.24-4.80Q104.19-6.53 104.19-8.48L104.19-8.48L104.19-8.48Q104.19-10.43 102.94-11.84L102.94-11.84L102.94-11.84Q101.70-13.25 99.84-14.37L99.84-14.37L99.84-14.37Q97.98-15.49 95.84-16.58L95.84-16.58L95.84-16.58Q93.70-17.66 91.84-19.20L91.84-19.20L91.84-19.20Q87.49-22.72 87.49-28.35L87.49-28.35L87.49-28.35Q87.49-32 89.28-34.85L89.28-34.85L89.28-34.85Q91.07-37.70 93.95-39.62L93.95-39.62L93.95-39.62Q99.71-43.52 106.78-43.52L106.78-43.52L106.78-43.52Q113.86-43.52 117.28-41.41L117.28-41.41L117.28-41.41Q120.70-39.30 120.70-35.71L120.70-35.71L120.70-35.71Q120.70-32.58 118.27-30.59L118.27-30.59L118.27-30.59Q116.16-28.93 113.60-28.93L113.60-28.93L113.60-28.93Q111.04-28.93 109.25-29.57Z" fill="#f00" stroke="#0f0" stroke-width="1.8"></path></g></g><g><g transform="translate(189.3733607530594, 97.43000411987305)"><path d="M26.05-29.57L26.05-29.57L26.05-29.57Q27.01-31.49 27.01-33.28L27.01-33.28L27.01-33.28Q27.01-35.07 26.82-36.06L26.82-36.06L26.82-36.06Q26.62-37.06 26.18-37.82L26.18-37.82L26.18-37.82Q25.22-39.49 23.30-39.49L23.30-39.49L23.30-39.49Q20.93-39.49 19.01-37.76L19.01-37.76L19.01-37.76Q16.96-35.97 16.96-33.15L16.96-33.15L16.96-33.15Q16.96-31.36 18.21-29.98L18.21-29.98L18.21-29.98Q19.46-28.61 21.38-27.33L21.38-27.33L21.38-27.33Q23.30-26.05 25.47-24.77L25.47-24.77L25.47-24.77Q27.65-23.49 29.57-21.95L29.57-21.95L29.57-21.95Q33.98-18.43 33.98-13.70L33.98-13.70L33.98-13.70Q33.98-10.50 32.29-7.78L32.29-7.78L32.29-7.78Q30.59-5.06 27.78-3.07L27.78-3.07L27.78-3.07Q21.63 1.28 13.50 1.28L13.50 1.28L13.50 1.28Q6.91 1.28 3.52-0.86L3.52-0.86L3.52-0.86Q0.13-3.01 0.13-6.27L0.13-6.27L0.13-6.27Q0.13-12.10 4.67-13.57L4.67-13.57L4.67-13.57Q5.95-14.02 7.90-14.02L7.90-14.02L7.90-14.02Q9.86-14.02 12.10-13.18L12.10-13.18L12.10-13.18Q11.07-10.56 11.07-8.19L11.07-8.19L11.07-8.19Q11.07-3.07 14.72-3.07L14.72-3.07L14.72-3.07Q17.09-3.07 19.04-4.80L19.04-4.80L19.04-4.80Q20.99-6.53 20.99-8.48L20.99-8.48L20.99-8.48Q20.99-10.43 19.74-11.84L19.74-11.84L19.74-11.84Q18.50-13.25 16.64-14.37L16.64-14.37L16.64-14.37Q14.78-15.49 12.64-16.58L12.64-16.58L12.64-16.58Q10.50-17.66 8.64-19.20L8.64-19.20L8.64-19.20Q4.29-22.72 4.29-28.35L4.29-28.35L4.29-28.35Q4.29-32 6.08-34.85L6.08-34.85L6.08-34.85Q7.87-37.70 10.75-39.62L10.75-39.62L10.75-39.62Q16.51-43.52 23.58-43.52L23.58-43.52L23.58-43.52Q30.66-43.52 34.08-41.41L34.08-41.41L34.08-41.41Q37.50-39.30 37.50-35.71L37.50-35.71L37.50-35.71Q37.50-32.58 35.07-30.59L35.07-30.59L35.07-30.59Q32.96-28.93 30.40-28.93L30.40-28.93L30.40-28.93Q27.84-28.93 26.05-29.57ZM39.81-15.62L39.81-15.62L39.81-15.62Q39.81-27.71 46.08-35.33L46.08-35.33L46.08-35.33Q52.74-43.58 64.32-43.58L64.32-43.58L64.32-43.58Q72.70-43.58 76.93-39.52L76.93-39.52L76.93-39.52Q81.15-35.46 81.15-26.88L81.15-26.88L81.15-26.88Q81.15-13.82 74.50-6.21L74.50-6.21L74.50-6.21Q67.90 1.28 56.83 1.28L56.83 1.28L56.83 1.28Q48.19 1.28 44-3.04L44-3.04L44-3.04Q39.81-7.36 39.81-15.62ZM56.64-28.86L56.64-28.86L56.64-28.86Q53.76-17.34 53.76-8.26L53.76-8.26L53.76-8.26Q53.76-6.08 54.50-4.67L54.50-4.67L54.50-4.67Q55.23-3.26 57.18-3.26L57.18-3.26L57.18-3.26Q59.14-3.26 60.35-4.19L60.35-4.19L60.35-4.19Q61.57-5.12 62.53-7.23L62.53-7.23L62.53-7.23Q64.06-10.69 65.50-18.02L65.50-18.02L65.50-18.02Q66.94-25.34 67.07-28.38L67.07-28.38L67.07-28.38Q67.20-31.42 67.20-33.73L67.20-33.73L67.20-33.73Q67.20-36.03 66.50-37.50L66.50-37.50L66.50-37.50Q65.79-38.98 63.90-38.98L63.90-38.98L63.90-38.98Q62.02-38.98 60.74-37.82L60.74-37.82L60.74-37.82Q58.37-35.65 56.64-28.86ZM109.25-29.57L109.25-29.57L109.25-29.57Q110.21-31.49 110.21-33.28L110.21-33.28L110.21-33.28Q110.21-35.07 110.02-36.06L110.02-36.06L110.02-36.06Q109.82-37.06 109.38-37.82L109.38-37.82L109.38-37.82Q108.42-39.49 106.50-39.49L106.50-39.49L106.50-39.49Q104.13-39.49 102.21-37.76L102.21-37.76L102.21-37.76Q100.16-35.97 100.16-33.15L100.16-33.15L100.16-33.15Q100.16-31.36 101.41-29.98L101.41-29.98L101.41-29.98Q102.66-28.61 104.58-27.33L104.58-27.33L104.58-27.33Q106.50-26.05 108.67-24.77L108.67-24.77L108.67-24.77Q110.85-23.49 112.77-21.95L112.77-21.95L112.77-21.95Q117.18-18.43 117.18-13.70L117.18-13.70L117.18-13.70Q117.18-10.50 115.49-7.78L115.49-7.78L115.49-7.78Q113.79-5.06 110.98-3.07L110.98-3.07L110.98-3.07Q104.83 1.28 96.70 1.28L96.70 1.28L96.70 1.28Q90.11 1.28 86.72-0.86L86.72-0.86L86.72-0.86Q83.33-3.01 83.33-6.27L83.33-6.27L83.33-6.27Q83.33-12.10 87.87-13.57L87.87-13.57L87.87-13.57Q89.15-14.02 91.10-14.02L91.10-14.02L91.10-14.02Q93.06-14.02 95.30-13.18L95.30-13.18L95.30-13.18Q94.27-10.56 94.27-8.19L94.27-8.19L94.27-8.19Q94.27-3.07 97.92-3.07L97.92-3.07L97.92-3.07Q100.29-3.07 102.24-4.80L102.24-4.80L102.24-4.80Q104.19-6.53 104.19-8.48L104.19-8.48L104.19-8.48Q104.19-10.43 102.94-11.84L102.94-11.84L102.94-11.84Q101.70-13.25 99.84-14.37L99.84-14.37L99.84-14.37Q97.98-15.49 95.84-16.58L95.84-16.58L95.84-16.58Q93.70-17.66 91.84-19.20L91.84-19.20L91.84-19.20Q87.49-22.72 87.49-28.35L87.49-28.35L87.49-28.35Q87.49-32 89.28-34.85L89.28-34.85L89.28-34.85Q91.07-37.70 93.95-39.62L93.95-39.62L93.95-39.62Q99.71-43.52 106.78-43.52L106.78-43.52L106.78-43.52Q113.86-43.52 117.28-41.41L117.28-41.41L117.28-41.41Q120.70-39.30 120.70-35.71L120.70-35.71L120.70-35.71Q120.70-32.58 118.27-30.59L118.27-30.59L118.27-30.59Q116.16-28.93 113.60-28.93L113.60-28.93L113.60-28.93Q111.04-28.93 109.25-29.57Z" fill="none" stroke="#fff" stroke-width="2.1"></path></g></g></g><style>text {
  font-size: 64px;
  font-family: Arial Black;
  dominant-baseline: central;
  text-anchor: middle;
}</style></svg>